<svg xmlns="http://www.w3.org/2000/svg" xmlns:xlink="http://www.w3.org/1999/xlink" width="1080" zoomAndPan="magnify" viewBox="0 0 810 809.999993" height="1080" preserveAspectRatio="xMidYMid meet" version="1.0"><defs><clipPath id="7562105d0b"><path d="M 39 53 L 776 53 L 776 767.238281 L 39 767.238281 Z M 39 53 " clip-rule="nonzero"/></clipPath><clipPath id="dcac091f33"><path d="M 100 213 L 767 213 L 767 767.238281 L 100 767.238281 Z M 100 213 " clip-rule="nonzero"/></clipPath></defs><g clip-path="url(#7562105d0b)"><path fill="#e07a5f" d="M 766.214844 262.398438 C 765.835938 260.410156 765.109375 258.5625 763.972656 256.90625 C 763.386719 255.546875 762.867188 254.191406 762.234375 252.863281 C 748.457031 223.535156 721.75 200 689.988281 193.71875 C 687.652344 153.5 673.417969 114.117188 644.089844 85.359375 C 614.460938 56.265625 569.949219 42.753906 531.8125 63.464844 C 513.03125 73.660156 498.554688 91.121094 494.5 112.335938 C 493.742188 116.28125 496.644531 118.851562 499.660156 119.152344 C 499.203125 120.226562 498.746094 121.269531 498.316406 122.359375 C 482.28125 122.65625 466.242188 124.851562 450.617188 129.320312 C 450.347656 129.144531 450.097656 128.957031 449.796875 128.8125 C 409.449219 109.289062 361.054688 105.4375 316.953125 112.320312 C 315.910156 96.644531 305.90625 82.894531 293.007812 73.457031 C 273.152344 58.933594 246.792969 55.589844 223.730469 63.71875 C 177.90625 79.867188 140.496094 126.113281 127.964844 172.253906 C 121.855469 194.746094 119.695312 223.378906 132.398438 244.105469 C 115.257812 254.285156 100.230469 265.839844 86.863281 280.882812 C 73.320312 296.128906 61.75 313.128906 52.894531 331.519531 C 38.496094 361.414062 28.710938 404.113281 59.824219 427.078125 C 64.023438 430.171875 68.914062 427.472656 71.015625 423.511719 C 72.609375 424.441406 74.390625 425.152344 76.570312 425.277344 C 84.855469 425.769531 92.65625 425.625 100.5 426.085938 C 100.308594 426.730469 100.136719 427.394531 99.949219 428.042969 C 97.136719 426.761719 93.554688 427.472656 92.765625 431.371094 C 81.90625 484.785156 84.683594 540.554688 100.6875 592.691406 C 115.179688 639.902344 138.855469 689.765625 184.789062 713.109375 C 203.855469 722.800781 224.3125 727.332031 244.582031 733.613281 C 247.46875 734.515625 249.804688 733.851562 251.480469 732.414062 C 258.472656 736.378906 268.875 729.226562 263.222656 721.539062 C 240.730469 690.855469 221.644531 658.339844 206.066406 624.304688 C 206.414062 624.636719 206.730469 625 207.09375 625.332031 C 232.773438 649.105469 269 655.71875 303.207031 658.226562 C 294.699219 671.421875 296.210938 688.566406 303.648438 702.503906 C 307.5 709.734375 312.882812 715.511719 319.148438 720.132812 C 316.511719 722.265625 314.601562 725.058594 313.308594 728.246094 C 312.582031 730.046875 312.25 731.972656 312.125 733.898438 C 312.074219 734.640625 312.09375 735.382812 312.171875 736.125 C 312.265625 736.929688 312.296875 737.78125 312.535156 738.554688 C 312.785156 739.34375 313.148438 740.101562 313.496094 740.859375 C 314.019531 742.011719 315.660156 743.179688 316.859375 743.449219 C 318.121094 743.734375 319.335938 743.667969 320.535156 743.164062 C 321.183594 742.894531 321.785156 742.46875 322.304688 741.964844 C 322.605469 742.675781 322.855469 743.339844 322.90625 743.90625 C 322.414062 745.691406 322.179688 747.601562 322.351562 749.746094 C 322.984375 757.921875 328.949219 763.605469 336.792969 765.058594 C 345.933594 766.746094 355.832031 766.382812 365.097656 766.699219 C 375.433594 767.046875 385.789062 767.21875 396.128906 767.203125 C 436.109375 767.15625 475.902344 764.125 515.507812 758.726562 C 517.449219 758.460938 519.074219 757.433594 520.386719 756.042969 C 521.363281 755.554688 522.214844 754.910156 523.003906 754.167969 C 525.089844 755.933594 527.992188 756.488281 530.628906 755.382812 C 534.101562 753.914062 535.726562 750.300781 534.90625 746.652344 C 534.039062 742.753906 532.269531 738.824219 530.628906 735.191406 C 529.175781 731.988281 527.757812 728.722656 526.164062 725.582031 C 522.878906 719.15625 519.832031 712.699219 516.945312 706.085938 C 516.4375 704.933594 515.398438 704.191406 514.230469 703.734375 C 518.363281 699.992188 522.089844 695.796875 525.042969 690.824219 C 533.15625 677.214844 535.269531 658.71875 527.976562 644.890625 C 541.867188 645.222656 555.742188 645.015625 569.601562 643.089844 C 591.382812 640.058594 611.683594 632.042969 629.472656 619.066406 C 636.636719 613.839844 642.9375 607.921875 648.367188 601.464844 C 647.355469 605.066406 646.363281 608.679688 645.273438 612.261719 C 638.910156 633.445312 631.253906 654.296875 621.691406 674.25 C 612.707031 692.984375 601.203125 709.636719 590.136719 727.097656 C 586.191406 733.332031 595.21875 740.246094 600.316406 734.957031 C 600.617188 734.640625 600.902344 734.292969 601.203125 733.976562 C 619.496094 725.042969 637.492188 715.050781 654.617188 703.765625 C 662.195312 699.613281 669.390625 694.40625 676.148438 688.4375 C 685.035156 681.636719 693.621094 674.453125 701.71875 666.765625 C 715.796875 653.414062 728.410156 637.800781 736.460938 620.042969 C 746.546875 597.789062 752.953125 574.285156 755.875 550.039062 C 759.253906 522.070312 756.996094 493.910156 749.828125 466.699219 C 748.726562 462.5 745.425781 460.824219 742.140625 460.984375 C 742.425781 447.835938 743.105469 435.207031 749.386719 420.527344 C 753.113281 411.847656 755.90625 403.324219 758.054688 394.65625 C 760.609375 394.421875 763.027344 392.839844 764.050781 389.527344 C 776.519531 349.261719 781.335938 302.664062 766.214844 262.398438 Z M 766.214844 262.398438 " fill-opacity="1" fill-rule="nonzero"/></g><path fill="#593926" d="M 749.988281 385.628906 C 757.265625 349.527344 764.777344 310.917969 754.550781 274.867188 C 746.671875 274.109375 739.917969 266.929688 733.367188 262.808594 C 726.738281 258.640625 719.761719 254.902344 712.53125 251.917969 C 697.691406 245.792969 680.535156 241.308594 664.464844 240.503906 C 655.167969 240.046875 655.265625 226.726562 664.464844 226.125 C 673.84375 225.523438 682.777344 225.097656 692.152344 226.347656 C 701.199219 227.546875 710.066406 229.410156 718.765625 232.203125 C 725.222656 234.269531 731.503906 236.90625 737.644531 239.792969 C 725.488281 222.984375 708.503906 209.550781 688.523438 204.847656 C 683.976562 210.828125 672.027344 209 670.859375 199.671875 C 670.449219 198.613281 670.371094 197.476562 670.558594 196.355469 C 669.15625 174.730469 665.667969 154.542969 655.800781 134.921875 C 645.335938 114.101562 631.808594 95.382812 611.636719 83.007812 C 592.535156 71.308594 570.199219 67.175781 548.59375 73.851562 C 528.59375 80.023438 511.152344 94.828125 505.230469 115.316406 C 504.363281 118.347656 501.980469 119.40625 499.660156 119.183594 C 499.203125 120.257812 498.746094 121.300781 498.316406 122.390625 C 559.152344 121.238281 620.128906 148.6875 659.066406 196.070312 C 663.488281 201.453125 656.007812 209.21875 651.285156 203.835938 C 602.355469 147.882812 521.742188 125.957031 450.476562 145.433594 C 446.640625 146.476562 443.734375 144.804688 442.171875 142.230469 C 418.78125 134.242188 395.277344 127.488281 370.511719 125.546875 C 350.75 124 331.050781 125.152344 311.839844 128.59375 C 310.988281 128.890625 310.070312 129.035156 309.140625 129.019531 C 248.242188 140.652344 192.699219 176.183594 157.6875 228.617188 C 154.136719 233.9375 145.566406 229.03125 149.054688 223.566406 C 161.855469 203.472656 177.464844 185.039062 195.347656 169.285156 C 211.023438 155.457031 228.621094 143.824219 247.390625 134.542969 C 249.046875 132.996094 252.519531 130.691406 252.285156 130.898438 C 251.382812 131.703125 250.578125 132.585938 249.726562 133.4375 C 266.015625 125.59375 283.144531 119.484375 300.757812 115.507812 C 301.28125 102.769531 291.460938 91.703125 280.585938 84.773438 C 279.828125 84.554688 279.070312 84.332031 278.296875 84.191406 C 277.523438 83.480469 276.765625 82.738281 275.960938 82.089844 C 274.289062 81.222656 272.628906 80.449219 270.988281 79.785156 C 265.148438 77.449219 259.308594 76.25 253.515625 75.824219 C 252.550781 75.980469 251.589844 76.1875 250.640625 76.472656 C 246.460938 75.605469 241.945312 75.839844 236.703125 77.59375 C 236.421875 77.527344 236.183594 77.417969 235.898438 77.371094 C 235.664062 77.324219 235.441406 77.339844 235.207031 77.292969 C 207.203125 83.652344 181.710938 107.488281 165.484375 129.414062 C 153.664062 145.402344 144.554688 163.460938 139.992188 182.875 C 135.574219 201.707031 133.285156 227.355469 145.203125 243.945312 C 147.773438 247.527344 144.207031 251.695312 140.59375 251.949219 C 140.324219 252.234375 140.152344 252.546875 139.804688 252.800781 C 132.761719 258.105469 125.945312 263.851562 119.425781 269.992188 C 137.246094 261.054688 155.699219 253.464844 174.5625 246.914062 C 192.097656 240.820312 210.28125 234.933594 228.71875 231.285156 C 228.890625 231.050781 229.066406 230.8125 229.238281 230.578125 C 231.039062 228.242188 233.863281 228.539062 235.960938 229.992188 C 241.046875 229.171875 246.144531 228.476562 251.257812 228.097656 C 260.886719 227.371094 262.054688 241.785156 253.453125 244.339844 C 245.339844 246.753906 237.164062 248.855469 228.96875 250.90625 C 219.925781 266.800781 213.894531 284.339844 210.613281 302.378906 C 206.257812 326.390625 209.445312 349.101562 213.421875 372.84375 C 215.046875 382.582031 202.199219 386.132812 198.679688 376.914062 C 189.539062 353.015625 190.992188 324.242188 196.203125 299.570312 C 199.546875 283.707031 205.386719 268.824219 213.136719 254.902344 C 202.230469 257.632812 191.355469 260.457031 180.636719 263.992188 C 156.597656 271.917969 133.171875 281.703125 110.175781 292.246094 C 106.230469 294.0625 102.535156 292.578125 100.421875 289.941406 C 89.152344 303.152344 79.253906 317.503906 71.34375 332.578125 C 59.160156 355.78125 45.144531 393.992188 69.578125 414.417969 C 72.578125 416.929688 72.546875 420.574219 70.984375 423.527344 C 72.578125 424.457031 74.359375 425.167969 76.539062 425.292969 C 84.824219 425.785156 92.625 425.640625 100.46875 426.101562 C 100.277344 426.746094 100.105469 427.410156 99.914062 428.058594 C 102.125 429.066406 103.878906 431.277344 103.339844 434.308594 C 98.164062 462.957031 97.011719 492.316406 99.726562 521.296875 C 104.398438 571.300781 121.351562 624.765625 151.738281 665.300781 C 164.410156 682.21875 181.917969 694.578125 201.441406 702.410156 C 213.152344 707.113281 225.324219 710.507812 237.335938 714.40625 C 225.640625 697.65625 215.015625 680.121094 205.453125 662.109375 C 198.457031 648.929688 192.191406 635.496094 186.476562 621.875 C 186.226562 621.277344 185.972656 620.691406 185.71875 620.09375 C 156.234375 548.984375 143.875 472.460938 144.996094 395.019531 C 145.089844 387.933594 155.902344 387.949219 155.984375 395.019531 C 156.09375 403.9375 156.441406 412.886719 156.960938 421.820312 C 158.003906 420.875 159.40625 420.308594 161.160156 420.527344 C 162.785156 420.226562 164.472656 420.558594 165.753906 421.773438 C 165.832031 421.804688 165.910156 421.820312 165.988281 421.855469 C 166.875 421.601562 167.742188 421.269531 168.5625 420.8125 C 170.203125 420.085938 171.8125 419.234375 173.410156 418.414062 C 177.433594 416.359375 181.425781 414.230469 185.390625 412.050781 C 192.933594 407.898438 199.925781 403.054688 207.109375 398.320312 C 213.121094 394.339844 219.261719 392.035156 226.175781 391.121094 C 233.738281 387.773438 241.644531 384.980469 249.144531 382.09375 C 249.679688 381.886719 250.199219 381.683594 250.738281 381.460938 C 255.929688 375.953125 261.960938 371.152344 269.09375 367.429688 C 277.699219 362.945312 287.4375 360.40625 297.363281 359.726562 C 299.574219 357.894531 301.769531 356.0625 303.929688 354.183594 C 306.410156 352.023438 309.707031 349.464844 311.003906 346.324219 C 311.398438 345.378906 311.585938 344.382812 311.648438 343.355469 C 309.660156 341.558594 307.847656 339.554688 306.171875 337.421875 C 304.46875 337.992188 302.511719 337.894531 300.773438 336.476562 C 292.28125 329.578125 288.730469 320.613281 288.019531 311.015625 C 286.757812 311.378906 285.382812 311.425781 283.886719 311.015625 C 280 309.941406 276.703125 305.175781 278.28125 301.132812 C 281.3125 293.320312 286.253906 286.785156 292.488281 281.78125 C 293.007812 280.171875 293.527344 278.59375 294.082031 277.03125 C 302.953125 252.21875 315.566406 228.730469 331.476562 207.71875 C 343.441406 191.921875 367.148438 164.375 388.898438 181.847656 C 398.210938 189.332031 402.347656 203.222656 405.789062 214.207031 C 407.953125 221.105469 409.5 228.097656 410.585938 235.183594 C 418.527344 223.789062 424.667969 210.957031 435.621094 201.910156 C 450.585938 189.550781 471.941406 186.175781 486.273438 201.546875 C 499.769531 216.023438 501.839844 238.261719 503.164062 257.03125 C 504.917969 281.972656 502.515625 307.257812 495.949219 331.375 C 495.191406 334.140625 493.597656 335.890625 491.671875 336.824219 C 494.355469 337.816406 497.148438 338.558594 499.898438 339.0625 C 511.136719 341.179688 522.957031 339.679688 534.210938 338.417969 C 547.425781 336.933594 560.636719 335.324219 573.847656 333.777344 C 581.011719 332.9375 588.164062 332.054688 595.3125 331.171875 C 601.105469 330.460938 607.199219 329.214844 613.121094 329.121094 C 613.292969 327.035156 613.449219 325 613.449219 323.058594 C 613.464844 313.617188 612.882812 304.117188 611.445312 294.773438 C 609.992188 285.347656 607.910156 275.957031 605.039062 266.863281 C 602.621094 259.226562 600.097656 253.164062 594.273438 247.511719 C 592.742188 246.046875 592.410156 243.976562 592.882812 242.082031 C 592.695312 241.925781 592.503906 241.800781 592.316406 241.625 C 591.699219 241.042969 591.050781 240.457031 590.453125 239.859375 C 589.285156 238.691406 588.257812 237.332031 587.167969 236.085938 C 585.652344 234.316406 584.058594 232.597656 582.75 230.671875 C 581.820312 229.296875 580.871094 227.925781 579.941406 226.535156 C 578.945312 225.066406 578.644531 222.480469 579.199219 220.820312 C 579.59375 219.589844 580.238281 218.5 581.109375 217.539062 C 582.199219 216.339844 583.808594 215.707031 585.371094 215.503906 C 586.363281 215.28125 587.34375 215.328125 588.335938 215.628906 C 588.921875 215.882812 589.523438 216.132812 590.105469 216.371094 C 591.480469 217.378906 592.851562 218.375 594.226562 219.386719 C 596.085938 220.742188 597.730469 222.289062 599.417969 223.835938 C 600.664062 224.988281 602.023438 226.09375 603.175781 227.339844 C 603.757812 227.972656 604.3125 228.617188 604.878906 229.265625 C 605.890625 230.433594 606.648438 231.632812 607.390625 232.960938 C 608.398438 234.773438 608.875 237.300781 608.226562 239.335938 C 607.941406 240.1875 607.53125 240.960938 607.042969 241.703125 C 620.191406 251.601562 625.035156 272.328125 628.558594 287.039062 C 631.222656 298.214844 632.945312 309.640625 633.796875 321.101562 C 634.398438 329.167969 635.863281 339.347656 632.960938 347.351562 C 633.246094 347.414062 633.496094 347.460938 633.65625 347.492188 C 639.890625 348.785156 646.265625 349.609375 652.597656 350.351562 C 659.398438 351.140625 666.234375 351.738281 673.070312 352.257812 C 680.234375 352.8125 687.921875 352.257812 694.914062 353.886719 C 699.128906 354.863281 702.175781 359.203125 702.175781 363.417969 C 702.175781 366.433594 700.375 370.066406 697.644531 371.878906 C 697.3125 373.160156 696.855469 374.40625 696.460938 375.683594 C 699.949219 375.480469 703.660156 378.242188 702.382812 382.566406 C 692.5 415.617188 684.84375 449.035156 678.199219 482.734375 C 678.4375 483.351562 678.578125 484.0625 678.546875 484.882812 C 676.667969 529.394531 669.613281 573.953125 657.285156 616.777344 C 650.953125 638.765625 643.171875 660.375 633.558594 681.164062 C 629.03125 690.964844 624.058594 701.082031 618.328125 710.679688 C 618.4375 710.757812 618.550781 710.851562 618.660156 710.933594 C 628.351562 705.109375 637.871094 698.984375 647.152344 692.496094 C 678.765625 670.398438 710.460938 643.3125 724.9375 606.566406 C 741.828125 563.679688 744.667969 515.773438 734.28125 470.945312 C 732.910156 465.039062 737.535156 461.171875 742.160156 460.9375 C 742.441406 447.789062 743.121094 435.160156 749.402344 420.480469 C 753.128906 411.800781 755.921875 403.273438 758.070312 394.609375 C 753.648438 395.035156 748.820312 391.421875 749.988281 385.628906 Z M 528.84375 218.863281 C 529.222656 217.710938 529.855469 216.71875 530.769531 215.863281 C 531.609375 214.964844 532.617188 214.316406 533.769531 213.941406 C 534.875 213.355469 536.074219 213.085938 537.351562 213.132812 C 537.984375 213.101562 538.632812 213.023438 539.261719 213.070312 C 539.5625 213.085938 539.878906 213.101562 540.179688 213.132812 C 542.074219 213.261719 543.367188 213.449219 545.007812 214.414062 C 546.855469 215.488281 547.125 216.117188 548.386719 217.757812 C 548.433594 217.824219 548.480469 217.886719 548.542969 217.964844 C 549.351562 219.355469 549.761719 220.835938 549.761719 222.449219 C 549.761719 224.058594 549.351562 225.542969 548.542969 226.929688 C 548.496094 226.992188 548.449219 227.054688 548.386719 227.136719 C 547.566406 228.523438 546.445312 229.644531 545.054688 230.464844 C 544.675781 230.65625 544.28125 230.8125 543.886719 230.957031 C 542.785156 231.539062 541.582031 231.808594 540.304688 231.761719 C 540.257812 231.761719 540.210938 231.761719 540.164062 231.777344 C 539.863281 231.792969 539.546875 231.808594 539.246094 231.839844 C 538.617188 231.886719 537.96875 231.808594 537.335938 231.777344 C 535.664062 231.777344 534.085938 231.351562 532.648438 230.511719 C 532.019531 230.023438 531.386719 229.550781 530.769531 229.0625 C 529.617188 227.894531 528.8125 226.535156 528.371094 224.957031 C 528.261719 224.136719 528.152344 223.316406 528.039062 222.480469 C 527.992188 221.167969 528.261719 219.96875 528.84375 218.863281 Z M 563.191406 292.453125 C 556.359375 285.742188 548.132812 281.101562 539.214844 278.324219 C 529.933594 275.4375 521.222656 274.789062 511.007812 274.882812 C 502.800781 274.960938 500.953125 262.335938 509.066406 260.488281 C 532.097656 255.246094 556.5625 266.691406 571.226562 284.433594 C 575.789062 289.957031 568.496094 297.660156 563.191406 292.453125 Z M 654.617188 703.765625 C 661.988281 698.90625 669.15625 693.789062 676.148438 688.4375 C 669.390625 694.40625 662.195312 699.613281 654.617188 703.765625 Z M 654.617188 703.765625 " fill-opacity="1" fill-rule="nonzero"/><path fill="#f7b9ac" d="M 188.546875 535.707031 C 188.65625 536.164062 188.894531 536.464844 189.066406 536.84375 C 188.957031 537.003906 188.8125 537.066406 188.703125 537.238281 C 184.535156 544.105469 182.105469 551.445312 181.0625 558.941406 C 172.523438 531.335938 166.132812 502.921875 162.042969 473.832031 C 161.839844 472.347656 161.679688 470.847656 161.492188 469.367188 C 173.929688 489.902344 183.117188 512.285156 188.546875 535.707031 Z M 405.078125 652.78125 C 405.09375 652.75 405.09375 652.734375 405.109375 652.703125 C 405.015625 652.703125 404.921875 652.71875 404.808594 652.71875 C 404.90625 652.75 405 652.75 405.078125 652.78125 Z M 321.089844 444.1875 C 320.996094 445.421875 320.726562 446.605469 320.519531 447.804688 C 321.308594 446.714844 322.082031 445.609375 322.886719 444.519531 C 322.382812 444.472656 321.894531 444.457031 321.390625 444.316406 C 321.292969 444.285156 321.199219 444.238281 321.089844 444.1875 Z M 277.699219 442.65625 C 277.460938 442.183594 277.382812 441.679688 277.238281 441.191406 C 276.972656 441.472656 276.734375 441.789062 276.464844 442.074219 C 276.890625 442.246094 277.285156 442.46875 277.699219 442.65625 Z M 702.191406 363.449219 C 702.191406 366.464844 700.390625 370.097656 697.660156 371.910156 C 697.332031 373.191406 696.871094 374.4375 696.476562 375.714844 C 694.378906 375.84375 692.375 377.042969 691.585938 379.628906 C 677.316406 426.382812 664.878906 474.210938 657.679688 522.605469 C 657.347656 524.785156 658.042969 526.601562 659.195312 527.988281 C 659.398438 529.253906 659.496094 530.484375 659.636719 531.730469 C 658.785156 530.230469 657.835938 528.777344 656.683594 527.40625 C 648.964844 518.109375 636.496094 516.925781 625.289062 518.882812 C 617.507812 518.535156 609.710938 519.609375 602.039062 521.660156 C 590.847656 524.644531 577.917969 529.773438 570.613281 539.195312 C 562.75 549.347656 564.582031 563.15625 574.351562 571.382812 C 583.664062 579.226562 595.929688 582.160156 607.894531 582.605469 C 620.144531 583.0625 632.535156 579.953125 643.378906 574.316406 C 649.472656 571.160156 654.980469 566.425781 656.875 559.574219 C 656.890625 559.511719 656.890625 559.449219 656.90625 559.386719 C 657.109375 559.195312 657.332031 559.054688 657.519531 558.832031 C 657.664062 558.675781 657.742188 558.5 657.867188 558.34375 C 652.375 579.761719 637.316406 597.597656 617.066406 610.402344 C 599.953125 621.214844 581.3125 627.148438 561.15625 628.757812 C 550.359375 629.609375 539.53125 629.671875 528.6875 629.5 C 549.492188 611.914062 560.445312 585.273438 554.683594 557.191406 C 547.535156 522.292969 516.089844 496.625 483.464844 486.253906 C 441.589844 472.949219 392.5 482.386719 353.730469 501.21875 C 319.984375 517.617188 295.550781 550.449219 291.429688 588.019531 C 289.929688 601.6875 291.933594 616.050781 298.421875 628.300781 C 301.625 634.363281 305.9375 639.414062 310.972656 643.59375 C 279.84375 640.140625 245.324219 636.996094 220.195312 617.03125 C 212.523438 610.9375 205.671875 602.933594 200.652344 594 C 198.300781 589.234375 196.34375 584.261719 194.890625 579.195312 C 199.484375 581.863281 204.710938 583.742188 209.144531 585.128906 C 220.164062 588.585938 232.539062 590.464844 244.074219 589.234375 C 247.296875 588.886719 250.546875 588.253906 253.6875 587.324219 C 255.457031 587.480469 257.097656 586.898438 258.25 585.667969 C 264.136719 583.125 269.222656 579.179688 272.171875 572.992188 C 276.8125 563.269531 275.359375 551.097656 269.078125 542.386719 C 261.503906 531.855469 248.527344 527.152344 235.835938 527.671875 C 222.152344 528.242188 209.003906 534.460938 197.859375 542.070312 C 197.765625 542.132812 197.683594 542.242188 197.589844 542.304688 C 198.222656 541.074219 198.285156 539.921875 198.03125 538.863281 C 199.941406 537.554688 201.171875 535.296875 200.464844 532.425781 C 192.824219 501.21875 178.632812 472.394531 158.964844 447.046875 C 158.144531 438.648438 157.496094 430.234375 157.007812 421.824219 C 158.050781 420.875 159.457031 420.308594 161.207031 420.527344 C 162.832031 420.226562 164.523438 420.558594 165.800781 421.773438 C 165.878906 421.808594 165.957031 421.824219 166.039062 421.855469 C 166.921875 421.601562 167.789062 421.269531 168.609375 420.8125 C 170.25 420.085938 171.863281 419.234375 173.457031 418.414062 C 177.480469 416.359375 181.472656 414.230469 185.4375 412.050781 C 192.980469 407.902344 199.972656 403.054688 207.15625 398.320312 C 213.171875 394.339844 219.308594 392.035156 226.222656 391.121094 C 233.785156 387.773438 241.691406 384.980469 249.191406 382.09375 C 249.726562 381.886719 250.246094 381.683594 250.785156 381.460938 C 232.554688 400.84375 225.417969 429.605469 222.847656 456.265625 C 212.824219 451.796875 204.234375 445.214844 196.34375 437.164062 C 191.941406 432.667969 183.480469 438.726562 187.378906 444.078125 C 197.558594 458.078125 211.671875 467.769531 227.613281 474.304688 C 231.210938 475.773438 236.359375 472.679688 237.019531 468.957031 C 242.199219 439.976562 244.707031 403.921875 271.542969 385.722656 C 274.683594 383.59375 278.027344 381.824219 281.515625 380.371094 C 282.226562 402.945312 272.21875 425.863281 252.773438 438.128906 C 244.4375 443.382812 248.683594 454.257812 257.445312 455.347656 C 277.160156 457.8125 292.960938 474.433594 296.734375 493.453125 C 298.25 501.09375 310.480469 502.875 313.875 495.695312 C 323.835938 474.558594 336.730469 455.144531 352.5625 437.953125 C 358.433594 431.59375 353.9375 422.738281 345.917969 421.917969 C 324.734375 419.769531 310.875 399.851562 310.546875 379.804688 C 310.527344 378.574219 310.292969 377.5 309.960938 376.535156 C 312.375 376.851562 314.789062 377.292969 317.175781 377.957031 C 332.707031 382.328125 342.601562 392.9375 352.027344 405.34375 C 356.808594 411.640625 369.34375 408.421875 366.136719 399.390625 C 356.082031 371.167969 325.917969 357.722656 297.445312 359.695312 C 299.652344 357.863281 301.847656 356.03125 304.011719 354.152344 C 306.488281 351.992188 309.789062 349.433594 311.082031 346.292969 C 311.476562 345.347656 311.664062 344.351562 311.730469 343.324219 C 309.738281 341.527344 307.925781 339.523438 306.25 337.390625 C 309.835938 336.207031 312.21875 331.867188 308.585938 328.726562 C 298.785156 320.265625 300.617188 305.585938 304.375 292.925781 C 304.546875 292.800781 304.71875 292.671875 304.894531 292.5625 C 306.03125 291.789062 307.183594 291.046875 308.367188 290.367188 C 309.597656 289.660156 310.875 289.027344 312.1875 288.441406 C 312.40625 288.347656 312.753906 288.207031 312.945312 288.144531 C 313.65625 287.890625 314.363281 287.636719 315.074219 287.402344 C 317.695312 286.566406 320.378906 286.011719 323.078125 285.554688 C 323.28125 285.523438 323.347656 285.507812 323.378906 285.507812 C 323.613281 285.476562 323.867188 285.445312 324.105469 285.429688 C 324.71875 285.378906 325.351562 285.316406 325.964844 285.285156 C 327.449219 285.207031 328.933594 285.207031 330.417969 285.285156 C 334.964844 285.523438 340.300781 287.117188 344.796875 289.894531 C 349.925781 293.050781 356.210938 285.363281 351.378906 281.371094 C 340.410156 272.3125 325.839844 269.3125 312.042969 272.4375 C 314.933594 265.601562 318.183594 258.910156 321.640625 252.34375 C 324.105469 253.699219 326.945312 254.269531 329.847656 253.496094 C 340.457031 250.621094 351.113281 248.414062 361.957031 246.675781 C 368.0625 245.699219 371.929688 245.128906 377.753906 244.152344 C 380.1875 243.742188 383.105469 243.332031 385.835938 242.558594 C 386.625 242.761719 387.398438 242.984375 388.1875 243.1875 C 388.898438 243.410156 389.609375 243.441406 390.320312 243.28125 C 391.03125 243.25 391.695312 243.046875 392.308594 242.652344 C 392.941406 242.320312 393.429688 241.863281 393.808594 241.277344 C 394.046875 241.027344 394.125 240.679688 394.28125 240.378906 C 394.835938 245.570312 395.070312 250.78125 394.976562 256.019531 C 394.851562 262.320312 402.710938 267.527344 408.25 263.628906 C 415.007812 258.878906 420.011719 252.863281 424.507812 246.441406 C 424.542969 246.660156 424.542969 246.882812 424.605469 247.117188 C 425.203125 249.296875 427.617188 251.554688 430.035156 251.253906 C 439.15625 250.132812 446.277344 248.238281 455.558594 248.601562 C 460.199219 248.792969 462.960938 249.09375 467.03125 249.945312 C 472.003906 250.984375 477.277344 253.859375 482.34375 252.660156 C 483.195312 252.453125 483.96875 252.011719 484.695312 251.476562 C 484.996094 256.304688 485.136719 261.023438 485.265625 265.367188 C 485.878906 286.042969 483.589844 306.5 479.109375 326.6875 C 477.292969 334.898438 485.992188 339.570312 491.75 336.808594 C 494.433594 337.800781 497.230469 338.542969 499.976562 339.046875 C 511.214844 341.164062 523.035156 339.664062 534.292969 338.402344 C 547.503906 336.917969 560.714844 335.308594 573.925781 333.761719 C 581.09375 332.921875 588.242188 332.039062 595.394531 331.15625 C 601.1875 330.445312 607.277344 329.199219 613.199219 329.105469 C 612.660156 335.324219 611.902344 341.9375 613.578125 347.636719 C 614.035156 348.929688 614.066406 349.308594 614.035156 349.214844 C 614.476562 350.316406 615.011719 351.375 615.707031 352.386719 C 618.707031 356.789062 624.863281 358.132812 628.871094 354.089844 C 630.796875 352.148438 632.09375 349.859375 632.992188 347.367188 C 633.277344 347.429688 633.527344 347.476562 633.6875 347.507812 C 639.921875 348.804688 646.296875 349.625 652.628906 350.367188 C 659.429688 351.15625 666.265625 351.753906 673.101562 352.277344 C 680.265625 352.828125 687.953125 352.277344 694.945312 353.902344 C 699.128906 354.894531 702.191406 359.238281 702.191406 363.449219 Z M 649.265625 402.914062 C 643.441406 408.59375 638.011719 414.625 632.566406 420.652344 C 621.296875 391.625 603.507812 362.628906 572.726562 353.300781 C 534.527344 341.714844 497.734375 365.753906 475.273438 394.832031 C 471.53125 399.675781 479.566406 405.675781 483.6875 401.316406 C 496.472656 387.824219 514.578125 375.335938 533.753906 370.363281 C 533.503906 382.566406 529.289062 394.40625 520.96875 403.496094 C 516.503906 408.375 511.371094 412.273438 505.375 415.082031 C 499.34375 417.90625 492.855469 421.144531 490.238281 427.742188 C 483.890625 443.777344 504.664062 447.597656 513.804688 454.75 C 524.171875 462.863281 531.101562 474.210938 533.992188 486.996094 C 535.492188 493.640625 544.820312 496.074219 549.398438 491.070312 C 565.542969 473.453125 581.691406 455.855469 597.839844 438.238281 C 602.9375 432.683594 600.253906 425.292969 593.734375 422.675781 C 582.78125 418.285156 573.4375 410 567.140625 400.085938 C 560.730469 389.984375 559.027344 379.835938 557.496094 368.453125 C 561.363281 368.898438 565.199219 369.75 568.96875 371.058594 C 598.769531 381.414062 610.011719 415.492188 618.863281 442.53125 C 621.152344 449.507812 630.324219 452.792969 635.785156 447 C 645.179688 437.054688 652.929688 425.832031 661.972656 415.601562 C 669.582031 407.015625 657.632812 394.765625 649.265625 402.914062 Z M 649.265625 402.914062 " fill-opacity="1" fill-rule="nonzero"/><path fill="#e07a5f" d="M 405.140625 652.703125 C 405.125 652.734375 405.109375 652.765625 405.109375 652.796875 C 405.109375 652.75 405.125 652.71875 405.140625 652.703125 Z M 348.507812 210.910156 C 348.789062 210.863281 349.042969 210.765625 349.328125 210.703125 C 349.203125 210.578125 349.089844 210.46875 348.949219 210.339844 C 348.808594 210.53125 348.664062 210.71875 348.507812 210.910156 Z M 392.324219 653.632812 C 394.21875 653.492188 396.113281 653.367188 397.992188 653.222656 C 396.714844 653.160156 393.539062 653.507812 392.324219 653.632812 Z M 235.804688 527.6875 C 222.121094 528.257812 208.972656 534.476562 197.828125 542.085938 C 197.734375 542.148438 197.652344 542.257812 197.558594 542.320312 C 197.542969 542.351562 197.542969 542.367188 197.527344 542.402344 C 191.308594 554.066406 190.929688 566.820312 194.277344 578.863281 C 194.464844 578.972656 194.65625 579.082031 194.84375 579.195312 C 199.4375 581.863281 204.664062 583.742188 209.097656 585.128906 C 220.113281 588.585938 232.492188 590.464844 244.027344 589.234375 C 247.25 588.886719 250.5 588.253906 253.640625 587.324219 C 253.375 587.292969 253.105469 587.355469 252.835938 587.292969 C 249.964844 586.644531 248.304688 583.363281 249.046875 580.613281 C 249.664062 578.34375 250.121094 576.054688 250.578125 573.734375 C 250.675781 573.242188 250.769531 572.738281 250.878906 572.25 C 250.972656 571.761719 251.304688 570.921875 251.273438 570.386719 C 251.289062 570.246094 251.304688 570.101562 251.335938 569.960938 C 251.464844 568.949219 251.621094 568.003906 251.828125 567.023438 C 252.300781 564.800781 252.757812 562.589844 253.230469 560.363281 C 253.46875 559.210938 255.015625 553.039062 256.59375 551.382812 C 260.128906 547.65625 267.421875 549.265625 268.496094 554.523438 C 268.84375 556.210938 268.96875 557.664062 268.433594 559.335938 C 268.273438 559.8125 268.085938 560.285156 267.910156 560.757812 C 267.515625 561.863281 267.105469 562.96875 266.710938 564.074219 C 265.9375 566.203125 265.164062 568.335938 264.390625 570.480469 C 264.058594 571.398438 263.710938 572.296875 263.316406 573.195312 C 263.222656 573.417969 263.113281 573.636719 263.019531 573.859375 C 262.574219 574.804688 262.261719 575.863281 261.898438 576.828125 C 261.058594 579.035156 260.238281 581.230469 259.5625 583.488281 C 259.292969 584.355469 258.820312 585.050781 258.25 585.667969 C 264.136719 583.125 269.222656 579.179688 272.171875 572.992188 C 276.8125 563.269531 275.359375 551.097656 269.078125 542.386719 C 261.472656 531.871094 248.496094 527.167969 235.804688 527.6875 Z M 238.566406 554.886719 C 238.09375 557.207031 236.277344 559.511719 235.078125 561.546875 C 234.039062 563.300781 233.011719 565.066406 231.96875 566.835938 C 229.902344 570.355469 227.816406 573.875 225.75 577.394531 C 224.15625 580.09375 220.777344 580.820312 218.078125 579.398438 C 216.863281 578.753906 215.871094 577.347656 215.507812 576.054688 C 215.0625 574.460938 215.457031 573.179688 216.074219 571.726562 C 218.441406 566.125 220.824219 560.535156 223.191406 554.933594 C 223.445312 554.316406 223.714844 553.703125 223.964844 553.085938 C 224.140625 552.691406 224.296875 552.28125 224.472656 551.886719 C 224.773438 551.175781 225.070312 550.480469 225.371094 549.773438 C 225.796875 549.15625 226.269531 548.554688 226.777344 548.003906 C 227.203125 547.53125 227.785156 547.121094 228.417969 546.789062 C 228.640625 546.679688 228.859375 546.597656 229.082031 546.503906 C 230.582031 545.875 232.300781 545.636719 233.640625 546.1875 C 233.578125 546.203125 233.515625 546.21875 233.453125 546.234375 C 234.117188 546.394531 234.746094 546.582031 235.332031 546.898438 C 238.1875 548.414062 239.199219 551.902344 238.566406 554.886719 Z M 424.558594 247.132812 C 424.492188 246.898438 424.492188 246.675781 424.460938 246.457031 C 429.371094 239.414062 433.632812 231.855469 438.792969 224.769531 C 447.035156 213.417969 464.175781 201.203125 475.035156 216.386719 C 481.855469 225.921875 483.875 239.085938 484.664062 251.507812 C 483.9375 252.042969 483.164062 252.484375 482.3125 252.691406 C 477.246094 253.890625 471.972656 251 467 249.976562 C 462.929688 249.125 460.167969 248.808594 455.527344 248.632812 C 446.246094 248.269531 439.125 250.164062 430.003906 251.285156 C 427.570312 251.570312 425.15625 249.3125 424.558594 247.132812 Z M 321.609375 252.359375 C 326.394531 243.28125 331.664062 234.460938 337.519531 226.046875 C 339.558594 223.125 343.582031 217.066406 348.507812 210.894531 C 348.789062 210.847656 349.042969 210.75 349.328125 210.6875 C 349.203125 210.5625 349.089844 210.449219 348.949219 210.324219 C 358.167969 198.914062 370.414062 187.40625 379.175781 194.886719 C 386.28125 200.949219 389.214844 215.125 391.347656 223.757812 C 392.703125 229.234375 393.652344 234.789062 394.25 240.363281 C 394.09375 240.664062 394.015625 241.011719 393.777344 241.261719 C 393.398438 241.847656 392.894531 242.304688 392.277344 242.636719 C 391.660156 243.03125 391 243.234375 390.289062 243.265625 C 389.578125 243.425781 388.867188 243.394531 388.15625 243.171875 C 387.367188 242.96875 386.59375 242.746094 385.804688 242.542969 C 383.058594 243.316406 380.15625 243.726562 377.722656 244.136719 C 371.914062 245.113281 368.03125 245.683594 361.921875 246.660156 C 351.078125 248.414062 340.425781 250.605469 329.816406 253.480469 C 326.929688 254.300781 324.074219 253.730469 321.609375 252.359375 Z M 406.089844 652.625 C 410.414062 652.292969 414.722656 651.914062 419.046875 651.566406 C 418.734375 652.449219 418.511719 653.382812 418.464844 654.359375 C 418.464844 654.597656 418.449219 654.851562 418.417969 655.085938 C 418.320312 655.542969 418.257812 656.082031 418.164062 656.445312 C 418.039062 656.964844 417.894531 657.46875 417.738281 657.976562 C 417.691406 658.148438 417.328125 659 417.25 659.269531 C 417.136719 659.492188 417.027344 659.695312 416.996094 659.757812 C 416.695312 660.328125 416.378906 660.878906 416.035156 661.417969 C 415.78125 661.828125 415.496094 662.222656 415.210938 662.617188 C 415.117188 662.726562 414.992188 662.867188 414.816406 663.058594 C 414.027344 663.941406 413.191406 664.730469 412.308594 665.519531 C 412.230469 665.597656 412.199219 665.613281 412.148438 665.679688 C 412.070312 665.726562 412.007812 665.757812 411.898438 665.835938 C 411.359375 666.183594 410.839844 666.53125 410.273438 666.847656 C 409.8125 667.113281 409.339844 667.351562 408.867188 667.589844 C 408.757812 667.652344 408.660156 667.683594 408.550781 667.730469 C 407.367188 668.125 406.199219 668.472656 404.96875 668.722656 C 404.859375 668.742188 404.875 668.757812 404.808594 668.773438 C 404.777344 668.773438 404.808594 668.757812 404.714844 668.757812 C 404.085938 668.738281 403.4375 668.820312 402.804688 668.820312 C 402.269531 668.820312 401.75 668.773438 401.226562 668.757812 C 401.085938 668.757812 401.023438 668.757812 400.941406 668.738281 C 400.847656 668.707031 400.769531 668.691406 400.597656 668.660156 C 399.445312 668.410156 398.324219 668.15625 397.203125 667.777344 C 396.902344 667.683594 396.601562 667.570312 396.300781 667.460938 C 396.824219 667.699219 396.855469 667.714844 396.429688 667.523438 C 395.941406 667.320312 395.433594 667.097656 394.960938 666.878906 C 394.394531 666.609375 393.792969 666.324219 393.257812 665.992188 C 393.273438 665.992188 392.484375 665.441406 392.308594 665.332031 C 391.519531 664.714844 390.792969 664.019531 390.097656 663.292969 C 388.441406 661.558594 387.398438 660.152344 386.296875 657.738281 C 386.042969 657.203125 385.160156 656.382812 384.257812 655.65625 C 384.226562 655.640625 384.195312 655.625 384.148438 655.605469 C 384.148438 655.589844 384.148438 655.589844 384.148438 655.574219 C 383.34375 654.945312 382.539062 654.390625 382.175781 654.1875 C 382.523438 654.027344 383.738281 654.140625 384.652344 654.203125 C 385.0625 654.171875 385.472656 654.140625 385.902344 654.109375 C 386.390625 653.949219 386.910156 653.964844 387.449219 653.996094 C 387.90625 653.964844 388.378906 653.933594 388.835938 653.902344 C 390.003906 653.824219 391.15625 653.730469 392.324219 653.648438 C 393.351562 653.824219 394.3125 654.171875 395.132812 654.785156 C 395.988281 654.09375 396.933594 653.554688 398.007812 653.238281 C 400.28125 653.066406 402.554688 652.925781 404.828125 652.734375 C 404.90625 652.765625 405 652.75 405.09375 652.78125 C 405.109375 652.75 405.109375 652.734375 405.125 652.703125 C 405.125 652.703125 405.140625 652.703125 405.140625 652.703125 C 405.125 652.734375 405.109375 652.765625 405.109375 652.78125 C 405.125 652.75 405.140625 652.71875 405.140625 652.6875 C 405.457031 652.671875 405.773438 652.65625 406.089844 652.625 Z M 575.664062 553.921875 C 575.695312 553.542969 575.726562 553.164062 575.789062 552.800781 C 575.820312 552.628906 575.851562 552.457031 575.882812 552.296875 C 575.804688 552.835938 575.726562 553.371094 575.664062 553.921875 Z M 659.621094 531.714844 C 658.769531 530.214844 657.820312 528.761719 656.667969 527.390625 C 648.949219 518.09375 636.480469 516.910156 625.273438 518.867188 C 617.492188 518.519531 609.695312 519.59375 602.023438 521.644531 C 590.832031 524.628906 577.902344 529.757812 570.597656 539.179688 C 562.734375 549.328125 564.566406 563.140625 574.335938 571.367188 C 583.648438 579.210938 595.914062 582.144531 607.878906 582.589844 C 620.128906 583.046875 632.519531 579.9375 643.363281 574.300781 C 649.457031 571.144531 654.964844 566.410156 656.859375 559.558594 C 656.875 559.496094 656.875 559.433594 656.890625 559.367188 C 657.09375 559.179688 657.316406 559.039062 657.503906 558.816406 C 657.648438 558.660156 657.726562 558.484375 657.851562 558.328125 C 660.015625 549.960938 660.648438 541.058594 659.621094 531.714844 Z M 594.082031 541.894531 C 592.945312 544.5 591.808594 547.121094 590.671875 549.722656 C 590.121094 551.003906 589.570312 552.28125 589 553.558594 C 588.226562 555.328125 587.3125 556.734375 586.097656 558.265625 C 586.410156 557.855469 586.726562 557.441406 587.058594 557.015625 C 586.554688 557.835938 586.046875 558.660156 585.542969 559.480469 C 584.058594 561.878906 581.140625 562.855469 578.550781 561.769531 C 575.867188 560.632812 574.761719 557.917969 575.300781 555.15625 C 575.457031 554.367188 575.617188 553.59375 575.757812 552.800781 C 576.152344 549.898438 577.195312 547.246094 578.171875 544.453125 C 579.121094 541.769531 580.050781 539.070312 580.996094 536.386719 C 581.753906 534.222656 583.003906 532.644531 585.132812 531.746094 C 586.980469 530.972656 588.796875 530.972656 590.640625 531.746094 C 592.597656 532.566406 594.289062 534.222656 594.777344 536.386719 C 594.855469 537.019531 594.953125 537.648438 595.03125 538.28125 C 595.0625 539.574219 594.730469 540.773438 594.082031 541.894531 Z M 630.515625 536.214844 C 629.707031 538.992188 628.019531 541.660156 626.566406 544.152344 C 625.320312 546.285156 624.089844 548.398438 622.84375 550.53125 C 621.597656 552.660156 620.285156 554.726562 618.976562 556.8125 C 618.171875 558.121094 617.398438 559.511719 616.339844 560.632812 C 616.085938 560.835938 615.851562 561.042969 615.613281 561.277344 C 615.597656 561.292969 615.597656 561.292969 615.582031 561.308594 C 615.1875 561.863281 614.792969 562.414062 614.398438 562.984375 C 612.628906 565.476562 609.742188 566.425781 606.933594 564.941406 C 605.746094 564.308594 604.769531 562.9375 604.421875 561.671875 C 603.996094 560.125 604.375 558.878906 604.972656 557.460938 C 605.242188 556.828125 605.542969 556.210938 605.78125 555.566406 C 606.0625 554.949219 606.046875 554.933594 605.730469 555.535156 C 605.8125 555.21875 605.875 554.886719 605.90625 554.554688 C 606.285156 553.085938 607.167969 551.648438 607.832031 550.292969 C 608.921875 548.082031 609.992188 545.855469 611.144531 543.679688 C 612.296875 541.5 613.449219 539.324219 614.601562 537.160156 C 615.960938 534.585938 617.351562 531.855469 619.308594 529.695312 C 621.34375 527.4375 624.878906 527.292969 627.421875 528.652344 C 630.023438 530.027344 631.304688 533.480469 630.515625 536.214844 Z M 536.265625 549.363281 C 548.230469 579.824219 532.964844 609.628906 505.4375 624.652344 C 503.402344 625.757812 502.21875 627.289062 501.648438 628.964844 C 500.417969 628.191406 498.855469 627.8125 496.914062 628.03125 C 443.625 634.472656 390.113281 639.460938 336.636719 644.195312 C 315.25 636.289062 303.285156 618.121094 304.105469 594.503906 C 304.753906 576.289062 311.902344 558.390625 323.015625 543.601562 C 326.1875 539.386719 329.675781 535.425781 333.433594 531.777344 C 338.261719 527.089844 343.519531 522.90625 349.105469 519.402344 C 365.253906 509.316406 384.054688 503.253906 402.488281 498.976562 C 421.84375 494.496094 442.25 492.617188 461.964844 495.710938 C 493.078125 500.617188 524.332031 518.976562 536.265625 549.363281 Z M 536.265625 549.363281 " fill-opacity="1" fill-rule="nonzero"/><g clip-path="url(#dcac091f33)"><path fill="#c96a57" d="M 516.4375 741.175781 C 515.253906 737.84375 514.007812 734.53125 512.964844 731.152344 C 510.851562 724.238281 508.5625 717.46875 506.035156 710.695312 C 505.972656 710.539062 506.019531 710.378906 505.972656 710.207031 C 492.984375 718.855469 477.152344 723.96875 462.691406 728.453125 C 455.527344 730.679688 452.8125 719.882812 459.644531 717.371094 C 477.8125 710.679688 499.992188 703.007812 510.660156 685.550781 C 515.539062 677.546875 517.449219 667.714844 515.539062 658.921875 C 515.207031 658.71875 514.921875 658.449219 514.558594 658.273438 C 514.640625 657.660156 514.796875 657.042969 514.8125 656.414062 C 513.359375 651.789062 510.882812 647.527344 506.984375 644.148438 C 504.539062 644.039062 502.105469 643.941406 499.660156 643.847656 C 498.839844 644.226562 497.9375 644.511719 496.914062 644.621094 C 476.332031 646.769531 455.714844 648.566406 435.085938 650.273438 C 436.09375 652.386719 436.160156 654.375 435.828125 656.742188 C 433.871094 670.964844 420.988281 682.1875 406.957031 683.339844 C 393.382812 684.460938 380.234375 674.707031 376.570312 661.859375 C 375.324219 657.484375 380.21875 654.1875 383.722656 655.386719 C 383.421875 655.023438 383.136719 654.675781 382.839844 654.34375 C 370.320312 655.230469 357.789062 656.003906 345.238281 656.476562 C 345.144531 656.695312 345.066406 656.871094 345.050781 656.886719 C 344.988281 656.871094 344.578125 656.742188 343.929688 656.554688 C 343.550781 656.570312 343.1875 656.601562 342.824219 656.617188 C 341.75 657.15625 340.503906 657.421875 339.019531 657.074219 C 338.71875 656.996094 338.421875 656.902344 338.121094 656.824219 C 333.242188 656.964844 328.367188 656.964844 323.488281 656.996094 C 322.714844 657.929688 321.609375 658.605469 320.222656 658.921875 C 319.984375 660.167969 319.398438 661.433594 318.328125 662.585938 C 309.914062 671.644531 311.207031 685.125 316.9375 696.015625 C 317.773438 697.089844 318.546875 698.210938 319.527344 699.15625 C 320.0625 700.421875 320.664062 701.652344 321.355469 702.820312 C 322.507812 704.269531 323.726562 705.628906 325.003906 706.84375 C 327.828125 709.527344 331.128906 711.609375 334.585938 713.441406 C 335.121094 713.585938 335.640625 713.773438 336.195312 713.867188 C 336.605469 714.027344 337 714.183594 337.410156 714.308594 C 337.253906 714.4375 337.078125 714.546875 336.90625 714.671875 C 342.273438 717.199219 348.015625 719 353.667969 720.246094 C 365.570312 722.851562 377.519531 723.859375 389.65625 724.507812 C 396.429688 724.871094 396.492188 734.988281 389.65625 735.082031 C 377.15625 735.242188 364.355469 735.523438 351.980469 733.410156 C 343.851562 732.019531 335.863281 729.527344 328.554688 725.894531 C 328.082031 726.75 327.449219 727.523438 326.628906 728.027344 C 326.550781 728.074219 326.488281 728.121094 326.425781 728.167969 C 325.933594 728.578125 325.492188 729.054688 325.066406 729.527344 C 324.71875 730.03125 324.402344 730.550781 324.136719 731.105469 C 323.914062 731.738281 323.742188 732.367188 323.613281 733.015625 C 323.550781 733.851562 323.503906 734.671875 323.597656 735.507812 C 323.675781 735.984375 323.742188 736.441406 323.820312 736.914062 C 323.820312 736.882812 323.820312 736.835938 323.820312 736.804688 C 323.789062 736.519531 323.742188 736.234375 323.710938 735.949219 C 323.742188 736.15625 323.773438 736.363281 323.820312 736.550781 C 323.835938 736.628906 323.820312 736.707031 323.835938 736.789062 C 323.867188 737.007812 323.898438 737.230469 323.929688 737.449219 C 323.898438 737.261719 323.867188 737.070312 323.851562 736.898438 C 324.054688 738.320312 323.945312 739.597656 323.265625 740.890625 C 323.046875 741.316406 322.699219 741.664062 322.335938 741.996094 C 322.636719 742.707031 322.886719 743.371094 322.9375 743.9375 C 322.445312 745.722656 322.210938 747.632812 322.382812 749.777344 C 323.015625 757.953125 328.980469 763.636719 336.828125 765.089844 C 345.964844 766.792969 355.863281 766.414062 365.128906 766.730469 C 375.46875 767.078125 385.820312 767.25 396.160156 767.234375 C 436.144531 767.1875 475.9375 764.15625 515.539062 758.761719 C 517.480469 758.492188 519.105469 757.464844 520.417969 756.078125 C 521.394531 755.585938 522.246094 754.941406 523.035156 754.199219 C 522.421875 753.675781 521.867188 753.09375 521.425781 752.382812 C 519.3125 748.972656 517.78125 744.917969 516.4375 741.175781 Z M 451.644531 733.726562 C 451.832031 733.550781 452.007812 733.378906 452.195312 733.1875 C 452.828125 733.300781 453.457031 733.425781 454.105469 733.519531 C 453.285156 733.597656 452.464844 733.679688 451.644531 733.726562 Z M 540.257812 405.691406 C 541.804688 402.847656 543.097656 399.882812 544.140625 396.851562 C 546.175781 401.648438 548.609375 406.242188 551.324219 410.332031 C 557.921875 420.242188 566.351562 428.277344 576.246094 434.324219 C 574.414062 436.328125 572.601562 438.332031 570.769531 440.320312 C 570.390625 440.148438 569.554688 441.347656 569.507812 441.695312 C 561.820312 450.109375 554.148438 458.539062 546.460938 466.949219 C 542.910156 459.5 538.109375 452.632812 532.285156 446.746094 C 527.535156 441.949219 522.011719 437.6875 516.089844 434.433594 C 515.414062 434.054688 513.441406 432.871094 511.5 431.84375 C 523.699219 425.816406 533.644531 417.875 540.257812 405.691406 Z M 277.238281 441.191406 C 286.851562 430.597656 293.433594 417.480469 295.722656 403.527344 C 301.832031 418.191406 314.492188 430.1875 329.234375 436.390625 C 327.054688 439.058594 324.957031 441.773438 322.886719 444.519531 C 322.382812 444.472656 320.726562 446.605469 320.519531 447.804688 C 315.675781 454.480469 311.128906 461.363281 306.992188 468.511719 C 300.128906 457.164062 289.789062 448.214844 277.699219 442.671875 C 277.476562 442.183594 277.398438 441.679688 277.238281 441.191406 Z M 119.441406 269.976562 C 137.261719 261.039062 155.714844 253.449219 174.578125 246.898438 C 192.113281 240.804688 210.296875 234.917969 228.734375 231.269531 C 222.957031 238.816406 217.714844 246.675781 213.152344 254.882812 C 202.246094 257.617188 191.371094 260.441406 180.652344 263.976562 C 156.613281 271.902344 133.191406 281.6875 110.191406 292.230469 C 106.246094 294.046875 102.550781 292.5625 100.4375 289.925781 C 106.417969 282.933594 112.765625 276.257812 119.441406 269.976562 Z M 235.980469 229.992188 C 241.0625 229.171875 246.160156 228.476562 251.273438 228.097656 C 260.902344 227.371094 262.070312 241.785156 253.46875 244.339844 C 245.355469 246.753906 237.179688 248.855469 228.984375 250.90625 C 231.667969 246.1875 234.605469 241.59375 237.839844 237.191406 C 239.75 234.601562 238.316406 231.601562 235.980469 229.992188 Z M 528.371094 224.925781 C 528.261719 224.105469 528.152344 223.285156 528.039062 222.449219 C 527.992188 221.167969 528.261719 219.96875 528.84375 218.863281 C 529.222656 217.710938 529.855469 216.71875 530.769531 215.863281 C 531.609375 214.964844 532.617188 214.316406 533.769531 213.941406 C 534.875 213.355469 536.074219 213.085938 537.351562 213.132812 C 537.984375 213.101562 538.632812 213.023438 539.261719 213.070312 C 539.5625 213.085938 539.878906 213.101562 540.179688 213.132812 C 542.074219 213.261719 543.367188 213.449219 545.007812 214.414062 C 546.855469 215.488281 547.125 216.117188 548.386719 217.757812 C 548.433594 217.824219 548.480469 217.886719 548.542969 217.964844 C 549.351562 219.355469 549.761719 220.835938 549.761719 222.449219 C 549.761719 224.058594 549.351562 225.542969 548.542969 226.929688 C 548.496094 226.992188 548.449219 227.054688 548.386719 227.136719 C 547.566406 228.523438 546.445312 229.644531 545.054688 230.464844 C 544.675781 230.65625 544.28125 230.8125 543.886719 230.957031 C 542.785156 231.539062 541.582031 231.808594 540.304688 231.761719 C 540.257812 231.761719 540.210938 231.761719 540.164062 231.777344 C 539.863281 231.792969 539.546875 231.808594 539.246094 231.839844 C 538.617188 231.886719 537.96875 231.808594 537.335938 231.777344 C 535.664062 231.777344 534.085938 231.351562 532.648438 230.511719 C 532.019531 230.023438 531.386719 229.550781 530.769531 229.0625 C 529.617188 227.863281 528.8125 226.503906 528.371094 224.925781 Z M 592.929688 242.113281 C 592.742188 241.957031 592.550781 241.832031 592.363281 241.65625 C 591.746094 241.074219 591.101562 240.488281 590.5 239.890625 C 589.332031 238.722656 588.304688 237.363281 587.21875 236.117188 C 585.703125 234.347656 584.105469 232.628906 582.796875 230.703125 C 581.867188 229.328125 580.917969 227.957031 579.988281 226.566406 C 578.992188 225.097656 578.691406 222.511719 579.246094 220.851562 C 579.640625 219.621094 580.289062 218.53125 581.15625 217.570312 C 582.246094 216.371094 583.855469 215.738281 585.417969 215.535156 C 586.410156 215.3125 587.390625 215.359375 588.386719 215.660156 C 588.96875 215.914062 589.570312 216.164062 590.152344 216.402344 C 591.527344 217.410156 592.898438 218.40625 594.273438 219.417969 C 596.136719 220.773438 597.777344 222.320312 599.464844 223.867188 C 600.710938 225.019531 602.070312 226.125 603.222656 227.371094 C 603.804688 228.003906 604.359375 228.652344 604.925781 229.296875 C 605.9375 230.464844 606.695312 231.664062 607.4375 232.992188 C 608.445312 234.808594 608.921875 237.332031 608.273438 239.367188 C 607.988281 240.222656 607.578125 240.996094 607.089844 241.734375 C 604.941406 240.125 602.605469 238.769531 600.003906 237.804688 C 596.546875 236.542969 593.6875 239.085938 592.929688 242.113281 Z M 766.214844 262.398438 C 765.519531 260.550781 764.746094 258.71875 763.972656 256.90625 C 765.109375 258.5625 765.835938 260.410156 766.214844 262.398438 Z M 718.765625 232.203125 C 725.222656 234.269531 731.503906 236.90625 737.644531 239.792969 C 742.773438 246.898438 747.066406 254.585938 750.320312 262.492188 C 752.007812 266.582031 753.367188 270.714844 754.550781 274.882812 C 746.671875 274.125 739.917969 266.945312 733.367188 262.824219 C 726.738281 258.65625 719.761719 254.917969 712.53125 251.933594 C 697.691406 245.808594 680.535156 241.324219 664.464844 240.519531 C 655.167969 240.0625 655.265625 226.742188 664.464844 226.140625 C 673.84375 225.542969 682.777344 225.113281 692.152344 226.363281 C 701.199219 227.546875 710.085938 229.410156 718.765625 232.203125 Z M 718.765625 232.203125 " fill-opacity="1" fill-rule="nonzero"/></g><path fill="#020201" d="M 196.3125 437.164062 C 191.90625 432.667969 183.449219 438.726562 187.347656 444.078125 C 197.527344 458.078125 211.640625 467.769531 227.582031 474.304688 C 231.179688 475.773438 236.324219 472.679688 236.988281 468.953125 C 242.167969 439.972656 244.675781 403.921875 271.507812 385.722656 C 274.652344 383.59375 277.996094 381.824219 281.484375 380.371094 C 282.195312 402.945312 272.1875 425.863281 252.742188 438.128906 C 244.40625 443.382812 248.652344 454.257812 257.414062 455.347656 C 277.128906 457.8125 292.929688 474.433594 296.703125 493.453125 C 298.21875 501.09375 310.449219 502.875 313.84375 495.695312 C 323.804688 474.558594 336.699219 455.144531 352.53125 437.953125 C 358.402344 431.59375 353.90625 422.738281 345.886719 421.917969 C 324.703125 419.769531 310.84375 399.851562 310.511719 379.804688 C 310.496094 378.574219 310.261719 377.5 309.929688 376.535156 C 312.34375 376.851562 314.757812 377.292969 317.144531 377.957031 C 332.675781 382.328125 342.570312 392.9375 351.996094 405.34375 C 356.777344 411.640625 369.3125 408.421875 366.105469 399.390625 C 356.050781 371.167969 325.886719 357.722656 297.414062 359.695312 C 287.46875 360.390625 277.730469 362.914062 269.140625 367.398438 C 262.007812 371.121094 255.960938 375.921875 250.785156 381.429688 C 232.554688 400.8125 225.417969 429.574219 222.847656 456.234375 C 212.792969 451.796875 204.203125 445.214844 196.3125 437.164062 Z M 329.25 436.390625 C 327.070312 439.058594 324.972656 441.773438 322.90625 444.519531 C 322.097656 445.59375 311.144531 461.363281 307.007812 468.511719 C 300.144531 457.164062 289.804688 448.214844 277.714844 442.671875 C 277.300781 442.484375 276.90625 442.261719 276.480469 442.089844 C 276.75 441.804688 276.988281 441.488281 277.253906 441.207031 C 286.867188 430.613281 293.449219 417.496094 295.738281 403.542969 C 301.832031 418.191406 314.492188 430.1875 329.25 436.390625 Z M 483.703125 401.316406 C 496.488281 387.824219 514.59375 375.335938 533.769531 370.363281 C 533.519531 382.566406 529.304688 394.40625 520.984375 403.496094 C 516.519531 408.375 511.386719 412.273438 505.390625 415.082031 C 499.359375 417.90625 492.871094 421.144531 490.253906 427.742188 C 483.90625 443.777344 504.679688 447.597656 513.820312 454.75 C 524.1875 462.863281 531.117188 474.210938 534.007812 486.996094 C 535.507812 493.640625 544.835938 496.074219 549.414062 491.070312 C 565.558594 473.453125 581.707031 455.855469 597.855469 438.238281 C 602.953125 432.683594 600.269531 425.292969 593.75 422.675781 C 582.796875 418.285156 573.453125 410 567.15625 400.085938 C 560.746094 389.984375 559.042969 379.835938 557.511719 368.453125 C 561.378906 368.898438 565.214844 369.75 568.984375 371.058594 C 598.785156 381.414062 610.027344 415.492188 618.878906 442.53125 C 621.167969 449.507812 630.339844 452.792969 635.800781 447 C 645.195312 437.054688 652.945312 425.832031 661.988281 415.601562 C 669.597656 406.984375 657.632812 394.75 649.28125 402.898438 C 643.457031 408.578125 638.027344 414.609375 632.582031 420.636719 C 621.3125 391.609375 603.523438 362.613281 572.742188 353.285156 C 534.542969 341.699219 497.75 365.738281 475.289062 394.816406 C 471.5625 399.675781 479.597656 405.675781 483.703125 401.316406 Z M 544.15625 396.851562 C 546.191406 401.648438 548.625 406.242188 551.339844 410.332031 C 557.9375 420.242188 566.367188 428.277344 576.261719 434.324219 C 574.429688 436.328125 572.617188 438.332031 570.785156 440.320312 C 570.359375 440.78125 554.164062 458.539062 546.476562 466.949219 C 542.925781 459.5 538.125 452.632812 532.300781 446.746094 C 527.550781 441.949219 522.027344 437.6875 516.105469 434.433594 C 515.429688 434.054688 513.457031 432.871094 511.515625 431.84375 C 523.699219 425.785156 533.644531 417.84375 540.257812 405.660156 C 541.804688 402.847656 543.097656 399.882812 544.15625 396.851562 Z M 306.21875 337.40625 C 304.515625 337.976562 302.558594 337.878906 300.820312 336.460938 C 292.328125 329.5625 288.777344 320.597656 288.066406 311 C 286.804688 311.363281 285.433594 311.410156 283.933594 311 C 280.050781 309.925781 276.75 305.160156 278.328125 301.117188 C 281.359375 293.304688 286.300781 286.769531 292.535156 281.765625 C 293.054688 280.15625 293.578125 278.578125 294.128906 277.015625 C 303 252.203125 315.613281 228.714844 331.523438 207.703125 C 343.488281 191.902344 367.195312 164.359375 388.945312 181.832031 C 398.261719 189.316406 402.394531 203.207031 405.835938 214.191406 C 408 221.089844 409.546875 228.082031 410.636719 235.167969 C 418.574219 223.773438 424.714844 210.941406 435.667969 201.894531 C 450.632812 189.535156 471.988281 186.160156 486.320312 201.53125 C 499.816406 216.007812 501.886719 238.246094 503.210938 257.015625 C 504.964844 281.957031 502.5625 307.242188 495.996094 331.359375 C 495.238281 334.125 493.644531 335.875 491.71875 336.804688 C 485.976562 339.570312 477.261719 334.914062 479.078125 326.6875 C 483.558594 306.515625 485.847656 286.058594 485.234375 265.367188 C 485.105469 261.023438 484.964844 256.289062 484.664062 251.476562 C 483.875 239.054688 481.855469 225.886719 475.035156 216.355469 C 464.191406 201.167969 447.050781 213.386719 438.792969 224.734375 C 433.632812 231.824219 429.371094 239.382812 424.460938 246.425781 C 419.980469 252.863281 414.976562 258.863281 408.203125 263.613281 C 402.679688 267.511719 394.804688 262.304688 394.929688 256.003906 C 395.039062 250.765625 394.789062 245.539062 394.234375 240.363281 C 393.636719 234.773438 392.6875 229.234375 391.332031 223.757812 C 389.199219 215.125 386.261719 200.949219 379.160156 194.886719 C 370.398438 187.40625 358.152344 198.914062 348.933594 210.324219 C 348.773438 210.515625 348.632812 210.703125 348.492188 210.878906 C 343.566406 217.050781 339.542969 223.109375 337.503906 226.03125 C 331.648438 234.445312 326.375 243.265625 321.59375 252.34375 C 318.121094 258.910156 314.886719 265.585938 311.996094 272.4375 C 325.792969 269.3125 340.347656 272.296875 351.332031 281.371094 C 356.164062 285.363281 349.878906 293.050781 344.75 289.894531 C 340.265625 287.117188 334.917969 285.539062 330.371094 285.285156 C 328.886719 285.207031 327.402344 285.207031 325.917969 285.285156 C 325.304688 285.316406 324.671875 285.378906 324.054688 285.429688 C 323.804688 285.445312 323.566406 285.476562 323.332031 285.507812 C 323.300781 285.507812 323.234375 285.523438 323.03125 285.554688 C 320.316406 286.011719 317.648438 286.5625 315.027344 287.402344 C 314.316406 287.636719 313.605469 287.890625 312.898438 288.144531 C 312.691406 288.222656 312.359375 288.347656 312.140625 288.441406 C 310.84375 289.027344 309.566406 289.65625 308.320312 290.367188 C 307.121094 291.046875 305.984375 291.789062 304.847656 292.5625 C 304.671875 292.6875 304.5 292.816406 304.324219 292.925781 C 300.570312 305.585938 298.722656 320.28125 308.539062 328.726562 C 312.1875 331.882812 309.789062 336.238281 306.21875 337.40625 Z M 613.167969 329.121094 C 613.339844 327.035156 613.5 325 613.5 323.058594 C 613.515625 313.617188 612.929688 304.117188 611.492188 294.773438 C 610.042969 285.347656 607.957031 275.957031 605.085938 266.863281 C 602.671875 259.226562 600.144531 253.164062 594.320312 247.511719 C 592.789062 246.046875 592.457031 243.976562 592.929688 242.082031 C 593.6875 239.054688 596.53125 236.511719 599.972656 237.789062 C 602.574219 238.753906 604.925781 240.109375 607.058594 241.71875 C 620.207031 251.617188 625.050781 272.34375 628.574219 287.054688 C 631.238281 298.230469 632.960938 309.65625 633.8125 321.117188 C 634.414062 329.183594 635.878906 339.363281 632.976562 347.367188 C 632.078125 349.859375 630.78125 352.148438 628.855469 354.089844 C 624.847656 358.148438 618.675781 356.789062 615.691406 352.386719 C 615.011719 351.375 614.460938 350.316406 614.019531 349.214844 C 613.8125 348.707031 613.71875 348.15625 613.5625 347.636719 C 611.871094 341.953125 612.628906 335.339844 613.167969 329.121094 Z M 213.152344 254.902344 C 217.714844 246.691406 222.957031 238.832031 228.734375 231.285156 C 228.90625 231.050781 229.082031 230.8125 229.253906 230.578125 C 231.054688 228.242188 233.878906 228.539062 235.980469 229.992188 C 238.300781 231.585938 239.734375 234.601562 237.824219 237.191406 C 234.589844 241.59375 231.667969 246.1875 228.96875 250.90625 C 219.925781 266.800781 213.894531 284.339844 210.613281 302.378906 C 206.257812 326.390625 209.445312 349.101562 213.421875 372.84375 C 215.046875 382.582031 202.199219 386.132812 198.679688 376.914062 C 189.539062 353.015625 190.992188 324.242188 196.203125 299.570312 C 199.5625 283.707031 205.402344 268.824219 213.152344 254.902344 Z M 71.015625 423.527344 C 68.914062 427.488281 64.023438 430.1875 59.824219 427.09375 C 28.710938 404.128906 38.480469 361.414062 52.894531 331.535156 C 61.75 313.144531 73.320312 296.144531 86.863281 280.898438 C 100.230469 265.855469 115.257812 254.285156 132.398438 244.121094 C 119.695312 223.378906 121.855469 194.761719 127.964844 172.269531 C 140.496094 126.128906 177.90625 79.898438 223.746094 63.734375 C 246.808594 55.605469 273.167969 58.949219 293.023438 73.472656 C 305.921875 82.910156 315.925781 96.660156 316.96875 112.335938 C 361.070312 105.46875 409.484375 109.304688 449.8125 128.828125 C 450.113281 128.972656 450.363281 129.160156 450.632812 129.335938 C 466.242188 124.867188 482.28125 122.6875 498.332031 122.375 C 559.167969 121.222656 620.144531 148.671875 659.085938 196.054688 C 663.503906 201.4375 656.023438 209.203125 651.300781 203.820312 C 602.371094 147.867188 521.757812 125.941406 450.492188 145.417969 C 446.65625 146.460938 443.75 144.789062 442.1875 142.214844 C 418.796875 134.226562 395.292969 127.472656 370.527344 125.53125 C 350.765625 123.984375 331.066406 125.136719 311.855469 128.578125 C 311.003906 128.875 310.085938 129.019531 309.15625 129.003906 C 248.257812 140.636719 192.714844 176.167969 157.703125 228.601562 C 154.152344 233.921875 145.582031 229.015625 149.070312 223.550781 C 161.871094 203.457031 177.480469 185.023438 195.363281 169.269531 C 211.039062 155.441406 228.640625 143.808594 247.40625 134.527344 C 248.179688 134.148438 248.96875 133.800781 249.757812 133.421875 C 266.046875 125.578125 283.175781 119.46875 300.789062 115.492188 C 301.3125 102.753906 291.492188 91.6875 280.617188 84.757812 C 279.085938 83.78125 277.539062 82.878906 275.992188 82.074219 C 274.320312 81.207031 272.660156 80.433594 271.019531 79.769531 C 265.179688 77.433594 259.339844 76.234375 253.546875 75.808594 C 247.375 75.367188 241.25 75.902344 235.253906 77.277344 C 207.25 83.636719 181.757812 107.472656 165.53125 129.398438 C 153.710938 145.386719 144.601562 163.445312 140.039062 182.859375 C 135.621094 201.691406 133.332031 227.339844 145.25 243.929688 C 147.820312 247.511719 144.253906 251.679688 140.640625 251.933594 C 140.371094 252.21875 140.199219 252.53125 139.851562 252.785156 C 132.8125 258.089844 125.992188 263.835938 119.472656 269.976562 C 112.796875 276.257812 106.449219 282.933594 100.46875 289.941406 C 89.199219 303.152344 79.300781 317.503906 71.394531 332.578125 C 59.207031 355.78125 45.191406 393.992188 69.625 414.417969 C 72.59375 416.929688 72.578125 420.574219 71.015625 423.527344 Z M 764.066406 389.511719 C 763.042969 392.824219 760.625 394.40625 758.070312 394.640625 C 753.664062 395.050781 748.835938 391.421875 750.003906 385.628906 C 757.28125 349.527344 764.792969 310.917969 754.566406 274.867188 C 753.382812 270.699219 752.023438 266.566406 750.335938 262.476562 C 747.082031 254.570312 742.789062 246.882812 737.660156 239.777344 C 725.503906 222.96875 708.519531 209.535156 688.539062 204.832031 C 683.992188 210.8125 672.042969 208.984375 670.875 199.65625 C 670.464844 198.597656 670.386719 197.460938 670.574219 196.339844 C 669.171875 174.714844 665.683594 154.527344 655.816406 134.90625 C 645.351562 114.085938 631.824219 95.367188 611.652344 82.992188 C 592.550781 71.292969 570.21875 67.160156 548.609375 73.835938 C 528.609375 80.007812 511.167969 94.8125 505.246094 115.300781 C 504.378906 118.332031 501.996094 119.390625 499.675781 119.167969 C 496.660156 118.867188 493.757812 116.28125 494.515625 112.351562 C 498.570312 91.121094 513.046875 73.679688 531.828125 63.480469 C 569.964844 42.753906 614.460938 56.285156 644.105469 85.359375 C 673.433594 114.117188 687.671875 153.5 690.007812 193.71875 C 721.765625 200 748.472656 223.535156 762.253906 252.863281 C 762.882812 254.191406 763.40625 255.5625 763.988281 256.90625 C 764.761719 258.71875 765.535156 260.550781 766.230469 262.398438 C 781.335938 302.664062 776.519531 349.261719 764.066406 389.511719 Z M 734.28125 470.976562 C 744.667969 515.804688 741.8125 563.695312 724.9375 606.597656 C 710.480469 643.34375 678.765625 670.429688 647.152344 692.527344 C 637.871094 699.015625 628.351562 705.125 618.660156 710.964844 C 618.421875 711.105469 618.203125 711.265625 617.964844 711.40625 C 618.089844 711.183594 618.203125 710.949219 618.34375 710.726562 C 624.074219 701.128906 629.046875 691.011719 633.574219 681.210938 C 643.1875 660.4375 650.972656 638.828125 657.300781 616.824219 C 669.613281 574.015625 676.667969 529.441406 678.5625 484.929688 C 678.59375 484.109375 678.453125 483.414062 678.214844 482.78125 C 684.859375 449.082031 692.515625 415.652344 702.398438 382.613281 C 703.691406 378.289062 699.964844 375.511719 696.476562 375.730469 C 694.378906 375.859375 692.375 377.058594 691.585938 379.644531 C 677.316406 426.398438 664.875 474.226562 657.679688 522.621094 C 657.347656 524.800781 658.042969 526.617188 659.195312 528.003906 C 659.398438 529.269531 659.496094 530.5 659.636719 531.746094 C 660.664062 541.089844 660.03125 550.007812 657.882812 558.34375 C 652.390625 579.761719 637.332031 597.597656 617.082031 610.402344 C 599.972656 621.214844 581.328125 627.148438 561.171875 628.757812 C 550.375 629.609375 539.546875 629.671875 528.703125 629.5 C 549.507812 611.914062 560.460938 585.269531 554.699219 557.191406 C 547.550781 522.292969 516.105469 496.625 483.480469 486.253906 C 441.605469 472.949219 392.515625 482.386719 353.746094 501.21875 C 320 517.617188 295.566406 550.449219 291.445312 588.019531 C 289.945312 601.6875 291.949219 616.050781 298.4375 628.300781 C 301.640625 634.363281 305.953125 639.414062 310.988281 643.59375 C 279.859375 640.136719 245.339844 636.996094 220.210938 617.03125 C 212.539062 610.9375 205.6875 602.933594 200.667969 594 C 197.96875 589.1875 195.792969 584.101562 194.339844 578.878906 C 190.976562 566.835938 191.355469 554.082031 197.589844 542.417969 C 197.605469 542.386719 197.605469 542.367188 197.621094 542.335938 C 198.253906 541.105469 198.316406 539.953125 198.0625 538.894531 C 199.972656 537.585938 201.207031 535.328125 200.496094 532.457031 C 192.855469 501.25 178.664062 472.425781 158.996094 447.078125 C 158.175781 438.679688 157.527344 430.265625 157.039062 421.855469 C 156.519531 412.902344 156.171875 403.96875 156.0625 395.050781 C 155.980469 387.980469 145.171875 387.964844 145.074219 395.050781 C 143.953125 472.492188 156.3125 549.015625 185.800781 620.125 C 186.050781 620.722656 186.304688 621.308594 186.558594 621.90625 C 192.253906 635.515625 198.523438 648.960938 205.53125 662.140625 C 215.09375 680.167969 225.71875 697.6875 237.414062 714.4375 C 225.417969 710.554688 213.25 707.144531 201.519531 702.441406 C 181.996094 694.609375 164.492188 682.234375 151.816406 665.332031 C 121.429688 624.796875 104.476562 571.332031 99.804688 521.328125 C 97.105469 492.347656 98.242188 462.988281 103.417969 434.339844 C 103.972656 431.308594 102.21875 429.097656 99.996094 428.089844 C 97.183594 426.808594 93.601562 427.519531 92.8125 431.417969 C 81.953125 484.835938 84.730469 540.601562 100.738281 592.738281 C 115.226562 639.949219 138.902344 689.8125 184.835938 713.15625 C 203.90625 722.851562 224.359375 727.378906 244.628906 733.664062 C 247.515625 734.5625 249.851562 733.898438 251.527344 732.460938 C 258.519531 736.425781 268.921875 729.273438 263.269531 721.585938 C 240.777344 690.902344 221.695312 658.386719 206.113281 624.355469 C 206.460938 624.683594 206.777344 625.046875 207.140625 625.378906 C 232.820312 649.152344 269.046875 655.765625 303.253906 658.273438 C 294.746094 671.472656 296.261719 688.613281 303.695312 702.550781 C 307.546875 709.78125 312.929688 715.558594 319.195312 720.183594 C 316.558594 722.3125 314.648438 725.105469 313.355469 728.296875 C 312.628906 730.09375 312.296875 732.019531 312.171875 733.945312 C 312.125 734.6875 312.140625 735.429688 312.21875 736.171875 C 312.3125 736.976562 312.34375 737.828125 312.582031 738.601562 C 312.832031 739.390625 313.195312 740.148438 313.542969 740.90625 C 314.066406 742.058594 315.707031 743.226562 316.90625 743.496094 C 318.167969 743.78125 319.382812 743.71875 320.582031 743.210938 C 321.230469 742.945312 321.832031 742.515625 322.351562 742.011719 C 322.699219 741.679688 323.046875 741.332031 323.28125 740.90625 C 323.960938 739.613281 324.070312 738.335938 323.867188 736.914062 C 323.804688 736.441406 323.726562 735.984375 323.644531 735.507812 C 323.550781 734.671875 323.597656 733.851562 323.660156 733.015625 C 323.789062 732.367188 323.960938 731.71875 324.183594 731.105469 C 324.449219 730.550781 324.765625 730.03125 325.113281 729.527344 C 325.539062 729.039062 325.980469 728.578125 326.472656 728.167969 C 326.535156 728.121094 326.613281 728.074219 326.675781 728.027344 C 327.496094 727.507812 328.128906 726.75 328.601562 725.894531 C 335.910156 729.542969 343.898438 732.019531 352.027344 733.410156 C 364.402344 735.523438 377.1875 735.257812 389.703125 735.082031 C 396.539062 734.988281 396.476562 724.886719 389.703125 724.507812 C 377.566406 723.84375 365.617188 722.851562 353.714844 720.246094 C 348.066406 719.015625 342.320312 717.199219 336.953125 714.671875 C 336.164062 714.292969 335.40625 713.867188 334.632812 713.441406 C 331.175781 711.609375 327.875 709.527344 325.050781 706.84375 C 323.773438 705.628906 322.558594 704.253906 321.40625 702.820312 C 319.746094 700.734375 318.261719 698.445312 316.984375 696.015625 C 311.253906 685.125 309.960938 671.660156 318.375 662.585938 C 319.449219 661.417969 320.03125 660.167969 320.269531 658.921875 C 321.65625 658.589844 322.746094 657.910156 323.535156 656.996094 C 328.414062 656.964844 333.289062 656.964844 338.167969 656.824219 C 338.46875 656.902344 338.769531 656.996094 339.066406 657.074219 C 340.550781 657.421875 341.796875 657.15625 342.871094 656.617188 C 343.25 656.601562 343.613281 656.570312 343.976562 656.554688 C 344.417969 656.539062 344.84375 656.507812 345.285156 656.492188 C 357.835938 656.019531 370.367188 655.246094 382.886719 654.359375 C 383.28125 654.328125 384.496094 654.21875 384.085938 654.265625 C 383.515625 654.328125 386.359375 654.109375 388.898438 653.917969 C 390.066406 653.824219 391.21875 653.746094 392.386719 653.664062 C 394.28125 653.523438 396.175781 653.398438 398.054688 653.253906 C 400.328125 653.082031 402.601562 652.941406 404.875 652.75 C 404.96875 652.75 405.0625 652.734375 405.171875 652.734375 C 405.171875 652.734375 405.1875 652.734375 405.1875 652.734375 C 405.1875 652.734375 405.1875 652.734375 405.203125 652.734375 C 405.519531 652.703125 405.835938 652.6875 406.152344 652.671875 C 410.476562 652.339844 414.785156 651.960938 419.109375 651.613281 C 418.796875 652.496094 418.574219 653.429688 418.527344 654.40625 C 418.527344 654.644531 418.511719 654.898438 418.480469 655.132812 C 418.386719 655.589844 418.320312 656.128906 418.226562 656.492188 C 418.101562 657.011719 417.957031 657.515625 417.800781 658.023438 C 417.753906 658.195312 417.390625 659.046875 417.3125 659.316406 C 417.203125 659.539062 417.089844 659.742188 417.058594 659.804688 C 416.757812 660.375 416.445312 660.925781 416.097656 661.464844 C 415.84375 661.875 415.558594 662.269531 415.277344 662.664062 C 415.179688 662.773438 415.054688 662.914062 414.882812 663.105469 C 414.089844 663.988281 413.253906 664.777344 412.371094 665.566406 C 412.292969 665.644531 412.261719 665.664062 412.214844 665.726562 C 412.132812 665.773438 412.070312 665.804688 411.960938 665.882812 C 411.425781 666.230469 410.902344 666.578125 410.335938 666.894531 C 409.878906 667.160156 409.402344 667.398438 408.929688 667.636719 C 408.820312 667.699219 408.726562 667.730469 408.613281 667.777344 C 407.429688 668.171875 406.261719 668.519531 405.03125 668.773438 C 404.921875 668.789062 404.9375 668.804688 404.875 668.820312 C 404.84375 668.820312 404.875 668.804688 404.777344 668.804688 C 404.148438 668.789062 403.5 668.867188 402.867188 668.867188 C 402.332031 668.867188 401.8125 668.820312 401.289062 668.804688 C 401.148438 668.804688 401.085938 668.804688 401.007812 668.789062 C 400.910156 668.757812 400.832031 668.738281 400.660156 668.707031 C 399.507812 668.457031 398.386719 668.203125 397.265625 667.824219 C 396.964844 667.730469 396.664062 667.621094 396.367188 667.507812 C 396.886719 667.746094 396.917969 667.761719 396.492188 667.570312 C 396.003906 667.367188 395.496094 667.144531 395.023438 666.925781 C 394.457031 666.65625 393.855469 666.371094 393.320312 666.039062 C 393.335938 666.039062 392.546875 665.488281 392.371094 665.378906 C 391.582031 664.761719 390.855469 664.066406 390.164062 663.339844 C 388.503906 661.605469 387.464844 660.199219 386.359375 657.785156 C 385.882812 656.757812 385.160156 656.144531 384.355469 655.734375 C 384.304688 655.703125 384.257812 655.6875 384.210938 655.65625 C 384.054688 655.574219 383.925781 655.480469 383.769531 655.417969 C 380.265625 654.21875 375.371094 657.5 376.617188 661.890625 C 380.28125 674.738281 393.429688 684.492188 407.003906 683.371094 C 421.050781 682.21875 433.917969 670.996094 435.875 656.777344 C 436.207031 654.40625 436.144531 652.433594 435.132812 650.304688 C 455.761719 648.597656 476.378906 646.800781 496.960938 644.652344 C 497.988281 644.542969 498.886719 644.257812 499.707031 643.878906 C 502.152344 643.972656 504.585938 644.070312 507.03125 644.179688 C 510.929688 647.558594 513.410156 651.820312 514.859375 656.445312 C 515.128906 657.28125 515.414062 658.101562 515.601562 658.953125 C 517.511719 667.746094 515.617188 677.578125 510.726562 685.582031 C 500.070312 703.054688 477.894531 710.726562 459.710938 717.402344 C 452.875 719.914062 455.589844 730.695312 462.753906 728.484375 C 477.230469 724 493.046875 718.886719 506.035156 710.238281 C 506.085938 710.394531 506.035156 710.570312 506.101562 710.726562 C 508.625 717.5 510.914062 724.285156 513.03125 731.183594 C 514.054688 734.5625 515.300781 737.890625 516.503906 741.207031 C 517.828125 744.949219 519.359375 749.003906 521.441406 752.398438 C 521.882812 753.109375 522.4375 753.691406 523.050781 754.214844 C 525.136719 755.980469 528.039062 756.535156 530.675781 755.429688 C 534.148438 753.960938 535.773438 750.347656 534.953125 746.699219 C 534.085938 742.800781 532.316406 738.871094 530.675781 735.242188 C 529.222656 732.035156 527.804688 728.769531 526.210938 725.628906 C 522.925781 719.203125 519.878906 712.746094 516.992188 706.132812 C 516.484375 704.980469 515.445312 704.238281 514.277344 703.78125 C 518.410156 700.039062 522.136719 695.84375 525.089844 690.871094 C 533.203125 677.265625 535.316406 658.765625 528.023438 644.9375 C 541.914062 645.269531 555.789062 645.0625 569.648438 643.136719 C 591.429688 640.105469 611.730469 632.089844 629.519531 619.113281 C 636.6875 613.890625 642.984375 607.96875 648.414062 601.511719 C 647.402344 605.113281 646.410156 608.726562 645.320312 612.308594 C 638.957031 633.492188 631.304688 654.34375 621.738281 674.296875 C 612.757812 693.03125 601.25 709.683594 590.183594 727.144531 C 586.238281 733.378906 595.265625 740.292969 600.367188 735.003906 C 600.664062 734.6875 600.949219 734.339844 601.25 734.023438 C 619.542969 725.089844 637.539062 715.097656 654.664062 703.8125 C 662.035156 698.953125 669.203125 693.835938 676.195312 688.488281 C 685.082031 681.683594 693.667969 674.5 701.765625 666.8125 C 715.84375 653.460938 728.457031 637.851562 736.507812 620.09375 C 746.59375 597.835938 753.003906 574.332031 755.921875 550.085938 C 759.300781 522.117188 757.042969 493.957031 749.875 466.746094 C 748.773438 462.546875 745.472656 460.875 742.191406 461.03125 C 737.535156 461.203125 732.910156 465.070312 734.28125 470.976562 Z M 188.703125 537.253906 C 184.535156 544.121094 182.105469 551.460938 181.0625 558.957031 C 172.523438 531.351562 166.132812 502.9375 162.042969 473.847656 C 161.839844 472.363281 161.679688 470.863281 161.492188 469.382812 C 173.914062 489.902344 183.117188 512.285156 188.546875 535.707031 C 188.65625 536.164062 188.894531 536.464844 189.066406 536.84375 C 188.957031 537.003906 188.8125 537.082031 188.703125 537.253906 Z M 505.4375 624.652344 C 503.402344 625.757812 502.21875 627.289062 501.648438 628.964844 C 500.417969 628.191406 498.855469 627.8125 496.914062 628.03125 C 443.625 634.472656 390.113281 639.460938 336.636719 644.195312 C 315.25 636.289062 303.285156 618.121094 304.105469 594.503906 C 304.753906 576.289062 311.902344 558.390625 323.015625 543.601562 C 326.1875 539.386719 329.675781 535.421875 333.433594 531.777344 C 338.261719 527.089844 343.519531 522.90625 349.105469 519.402344 C 365.253906 509.316406 384.054688 503.253906 402.488281 498.976562 C 421.84375 494.496094 442.25 492.617188 461.964844 495.710938 C 493.046875 500.601562 524.316406 518.945312 536.234375 549.328125 C 548.214844 579.839844 532.949219 609.628906 505.4375 624.652344 Z M 323.789062 736.519531 C 323.804688 736.597656 323.789062 736.675781 323.804688 736.757812 C 323.773438 736.472656 323.726562 736.1875 323.695312 735.902344 C 323.710938 736.109375 323.757812 736.3125 323.789062 736.519531 Z M 323.882812 737.433594 C 323.851562 737.246094 323.820312 737.054688 323.804688 736.882812 C 323.804688 736.851562 323.804688 736.804688 323.804688 736.773438 C 323.835938 736.976562 323.867188 737.199219 323.882812 737.433594 Z M 571.226562 284.417969 C 575.804688 289.957031 568.511719 297.660156 563.207031 292.4375 C 556.375 285.726562 548.148438 281.085938 539.230469 278.308594 C 529.949219 275.421875 521.238281 274.773438 511.023438 274.867188 C 502.816406 274.945312 500.96875 262.320312 509.082031 260.472656 C 532.097656 255.230469 556.546875 266.675781 571.226562 284.417969 Z M 215.507812 576.039062 C 215.0625 574.441406 215.457031 573.164062 216.074219 571.710938 C 218.441406 566.109375 220.824219 560.519531 223.191406 554.917969 C 223.445312 554.300781 223.714844 553.6875 223.964844 553.070312 C 224.140625 552.675781 224.296875 552.265625 224.472656 551.871094 C 224.773438 551.160156 225.070312 550.464844 225.371094 549.757812 C 225.796875 549.140625 226.269531 548.539062 226.777344 547.988281 C 227.203125 547.515625 227.785156 547.105469 228.417969 546.773438 C 228.640625 546.664062 228.859375 546.582031 229.082031 546.488281 C 230.582031 545.855469 232.300781 545.621094 233.640625 546.171875 C 233.578125 546.1875 233.515625 546.203125 233.453125 546.21875 C 234.117188 546.378906 234.746094 546.566406 235.332031 546.882812 C 238.203125 548.398438 239.199219 551.886719 238.582031 554.855469 C 238.109375 557.175781 236.292969 559.480469 235.09375 561.515625 C 234.054688 563.269531 233.027344 565.035156 231.984375 566.804688 C 229.917969 570.324219 227.832031 573.84375 225.765625 577.363281 C 224.171875 580.0625 220.792969 580.789062 218.09375 579.367188 C 216.878906 578.753906 215.871094 577.347656 215.507812 576.039062 Z M 259.527344 583.503906 C 259.261719 584.371094 258.789062 585.066406 258.21875 585.683594 C 257.066406 586.914062 255.425781 587.496094 253.65625 587.339844 C 253.390625 587.308594 253.121094 587.371094 252.851562 587.308594 C 249.980469 586.660156 248.320312 583.378906 249.0625 580.628906 C 249.679688 578.359375 250.136719 576.070312 250.59375 573.75 C 250.691406 573.257812 250.785156 572.753906 250.894531 572.265625 C 251.003906 571.746094 251.382812 570.796875 251.289062 570.292969 C 251.210938 571.035156 251.195312 571.175781 251.242188 570.71875 C 251.273438 570.480469 251.304688 570.230469 251.335938 569.992188 C 251.464844 568.980469 251.621094 568.035156 251.828125 567.054688 C 252.300781 564.832031 252.757812 562.621094 253.230469 560.394531 C 253.46875 559.242188 255.015625 553.070312 256.59375 551.414062 C 260.128906 547.6875 267.421875 549.296875 268.496094 554.554688 C 268.84375 556.242188 268.96875 557.695312 268.433594 559.367188 C 268.273438 559.84375 268.085938 560.316406 267.910156 560.789062 C 267.515625 561.894531 267.105469 563 266.710938 564.105469 C 265.9375 566.234375 265.164062 568.367188 264.390625 570.511719 C 264.058594 571.429688 263.710938 572.328125 263.316406 573.226562 C 263.222656 573.449219 263.113281 573.667969 263.019531 573.890625 C 262.574219 574.839844 262.261719 575.894531 261.898438 576.859375 C 261.027344 579.050781 260.207031 581.246094 259.527344 583.503906 Z M 594.808594 536.371094 C 594.886719 537.003906 594.984375 537.632812 595.0625 538.265625 C 595.0625 539.558594 594.730469 540.757812 594.082031 541.878906 C 592.945312 544.484375 591.808594 547.105469 590.671875 549.707031 C 590.121094 550.988281 589.570312 552.265625 589 553.542969 C 588.226562 555.3125 587.3125 556.71875 586.097656 558.25 C 586.410156 557.835938 586.726562 557.425781 587.058594 557 C 586.554688 557.820312 586.046875 558.644531 585.542969 559.464844 C 584.058594 561.863281 581.140625 562.839844 578.550781 561.753906 C 575.867188 560.617188 574.761719 557.902344 575.300781 555.140625 C 575.488281 554.191406 575.679688 553.230469 575.867188 552.28125 C 575.789062 552.820312 575.726562 553.371094 575.648438 553.90625 C 575.882812 550.546875 577.082031 547.578125 578.171875 544.4375 C 579.121094 541.753906 580.050781 539.054688 580.996094 536.371094 C 581.753906 534.207031 583.003906 532.628906 585.132812 531.730469 C 586.980469 530.957031 588.796875 530.957031 590.640625 531.730469 C 592.632812 532.566406 594.320312 534.222656 594.808594 536.371094 Z M 630.515625 536.214844 C 629.707031 538.992188 628.019531 541.660156 626.566406 544.152344 C 625.320312 546.285156 624.089844 548.398438 622.84375 550.53125 C 621.597656 552.660156 620.285156 554.726562 618.976562 556.8125 C 618.171875 558.121094 617.398438 559.511719 616.339844 560.632812 C 616.085938 560.835938 615.851562 561.042969 615.613281 561.277344 C 615.597656 561.292969 615.597656 561.292969 615.582031 561.308594 C 615.1875 561.863281 614.792969 562.414062 614.398438 562.984375 C 612.628906 565.476562 609.742188 566.425781 606.933594 564.941406 C 605.746094 564.308594 604.769531 562.9375 604.421875 561.671875 C 603.996094 560.125 604.375 558.878906 604.972656 557.460938 C 605.242188 556.828125 605.542969 556.210938 605.78125 555.566406 C 606.0625 554.949219 606.046875 554.933594 605.730469 555.535156 C 605.8125 555.21875 605.875 554.886719 605.90625 554.554688 C 606.285156 553.085938 607.167969 551.648438 607.832031 550.292969 C 608.921875 548.082031 609.992188 545.855469 611.144531 543.679688 C 612.296875 541.5 613.449219 539.324219 614.601562 537.160156 C 615.960938 534.585938 617.351562 531.855469 619.308594 529.695312 C 621.34375 527.4375 624.878906 527.292969 627.421875 528.652344 C 630.023438 530.027344 631.304688 533.480469 630.515625 536.214844 Z M 630.515625 536.214844 " fill-opacity="1" fill-rule="nonzero"/></svg>