<svg xmlns="http://www.w3.org/2000/svg" xmlns:xlink="http://www.w3.org/1999/xlink" width="1080" zoomAndPan="magnify" viewBox="0 0 810 809.999993" height="1080" preserveAspectRatio="xMidYMid meet" version="1.0"><path fill="#ffffff" d="M 809.917969 739.691406 L 809.917969 70.308594 L 774.765625 70.308594 L 774.765625 0 L 35.234375 0 L 35.234375 70.308594 L 0.0820312 70.308594 L 0.0820312 739.691406 L 35.234375 739.691406 L 35.234375 810 L 774.765625 810 L 774.765625 739.691406 Z M 809.917969 739.691406 " fill-opacity="1" fill-rule="nonzero"/><path fill="#3d405b" d="M 791.289062 721.0625 L 791.289062 88.9375 L 756.136719 88.9375 L 756.136719 18.628906 L 510.382812 18.628906 L 510.382812 18.792969 L 510.382812 18.628906 L 53.863281 18.628906 L 53.863281 88.9375 L 18.710938 88.9375 L 18.710938 721.0625 L 53.863281 721.0625 L 53.863281 791.371094 L 756.136719 791.371094 L 756.136719 721.0625 Z M 791.289062 721.0625 " fill-opacity="1" fill-rule="nonzero"/><path fill="#e07a5f" d="M 721.144531 650.917969 L 721.144531 88.613281 L 510.21875 88.613281 L 510.21875 88.453125 L 88.371094 88.453125 L 88.371094 721.0625 L 510.21875 721.0625 L 510.21875 721.222656 L 721.144531 721.222656 Z M 721.144531 650.917969 " fill-opacity="1" fill-rule="nonzero"/><path fill="#f2cc8f" d="M 194.320312 369.847656 L 264.464844 369.847656 L 264.464844 299.699219 L 299.617188 299.699219 L 299.617188 229.390625 L 264.464844 229.390625 L 264.464844 159.085938 L 194.320312 159.085938 L 194.320312 229.390625 L 159.164062 229.390625 L 159.164062 299.699219 L 194.320312 299.699219 Z M 194.320312 369.847656 " fill-opacity="1" fill-rule="nonzero"/><path fill="#f2cc8f" d="M 299.617188 510.300781 L 264.464844 510.300781 L 264.464844 440.152344 L 194.320312 440.152344 L 194.320312 510.300781 L 159.164062 510.300781 L 159.164062 580.609375 L 194.320312 580.609375 L 194.320312 650.917969 L 229.472656 650.917969 L 264.464844 650.753906 L 264.464844 580.609375 L 299.617188 580.609375 Z M 299.617188 510.300781 " fill-opacity="1" fill-rule="nonzero"/><path fill="#f2cc8f" d="M 475.226562 369.847656 L 440.074219 369.847656 L 440.074219 299.699219 L 369.925781 299.699219 L 369.925781 369.847656 L 334.773438 369.847656 L 334.773438 440.152344 L 369.925781 440.152344 L 369.925781 510.300781 L 440.074219 510.300781 L 440.074219 439.992188 L 475.226562 439.992188 Z M 475.226562 369.847656 " fill-opacity="1" fill-rule="nonzero"/><path fill="#f2cc8f" d="M 545.535156 370.007812 L 615.679688 370.007812 L 615.679688 299.699219 L 650.835938 299.699219 L 650.835938 229.390625 L 615.679688 229.390625 L 615.679688 159.246094 L 545.535156 159.246094 L 545.535156 229.390625 L 510.382812 229.390625 L 510.382812 299.699219 L 545.535156 299.699219 Z M 545.535156 370.007812 " fill-opacity="1" fill-rule="nonzero"/><path fill="#f2cc8f" d="M 650.835938 580.609375 L 650.835938 510.300781 L 615.679688 510.300781 L 615.679688 440.152344 L 545.535156 440.152344 L 545.535156 510.300781 L 510.382812 510.300781 L 510.382812 580.609375 L 545.535156 580.609375 L 545.535156 650.917969 L 615.679688 650.917969 L 615.679688 580.609375 Z M 650.835938 580.609375 " fill-opacity="1" fill-rule="nonzero"/></svg>